<svg width="146" height="146" viewBox="0 0 146 146" fill="none" xmlns="http://www.w3.org/2000/svg">
<g id="Group 51">
<g id="Group 4" filter="url(#filter0_d_54_222)">
<g id="Ellipse 1" filter="url(#filter1_d_54_222)">
<circle cx="73" cy="69" r="49.5" stroke="white" shape-rendering="crispEdges"/>
</g>
</g>
<path id="Icon" d="M91.8908 67.1631H74.1357V49.408C74.1357 48.3936 73.3133 47.5713 72.2989 47.5713C71.2845 47.5713 70.4622 48.3936 70.4622 49.408V67.1631H52.7071C51.6927 67.1631 50.8704 67.9855 50.8704 68.9999C50.8704 70.0143 51.6927 70.8366 52.7071 70.8366H70.4622V88.5917C70.4622 89.6061 71.2845 90.4284 72.2989 90.4284C73.3133 90.4284 74.1357 89.6061 74.1357 88.5917V70.8366H91.8908C92.9052 70.8366 93.7275 70.0143 93.7275 68.9999C93.7275 67.9855 92.9052 67.1631 91.8908 67.1631Z" fill="white"/>
</g>
<defs>
<filter id="filter0_d_54_222" x="0" y="0" width="146" height="146" filterUnits="userSpaceOnUse" color-interpolation-filters="sRGB">
<feFlood flood-opacity="0" result="BackgroundImageFix"/>
<feColorMatrix in="SourceAlpha" type="matrix" values="0 0 0 0 0 0 0 0 0 0 0 0 0 0 0 0 0 0 127 0" result="hardAlpha"/>
<feOffset dy="4"/>
<feGaussianBlur stdDeviation="11.5"/>
<feComposite in2="hardAlpha" operator="out"/>
<feColorMatrix type="matrix" values="0 0 0 0 0.666667 0 0 0 0 0.666667 0 0 0 0 0.666667 0 0 0 0.3 0"/>
<feBlend mode="normal" in2="BackgroundImageFix" result="effect1_dropShadow_54_222"/>
<feBlend mode="normal" in="SourceGraphic" in2="effect1_dropShadow_54_222" result="shape"/>
</filter>
<filter id="filter1_d_54_222" x="19" y="19" width="108" height="108" filterUnits="userSpaceOnUse" color-interpolation-filters="sRGB">
<feFlood flood-opacity="0" result="BackgroundImageFix"/>
<feColorMatrix in="SourceAlpha" type="matrix" values="0 0 0 0 0 0 0 0 0 0 0 0 0 0 0 0 0 0 127 0" result="hardAlpha"/>
<feOffset dy="4"/>
<feGaussianBlur stdDeviation="2"/>
<feComposite in2="hardAlpha" operator="out"/>
<feColorMatrix type="matrix" values="0 0 0 0 0 0 0 0 0 0 0 0 0 0 0 0 0 0 0.6 0"/>
<feBlend mode="normal" in2="BackgroundImageFix" result="effect1_dropShadow_54_222"/>
<feBlend mode="normal" in="SourceGraphic" in2="effect1_dropShadow_54_222" result="shape"/>
</filter>
</defs>
</svg>
