<svg width="42" height="35" viewBox="0 0 42 35" fill="none" xmlns="http://www.w3.org/2000/svg">
<path id="Icon" d="M40.1993 0.887451C39.2106 0.900054 38.4122 1.67849 38.3993 2.64252V7.32271C38.4252 9.96805 37.3589 12.5124 35.4404 14.383C33.522 16.2537 30.9125 17.2934 28.1995 17.2681H6.14404L17.4718 6.15266C17.8819 5.44933 17.7458 4.56377 17.1422 4.00857C16.5387 3.45337 15.6241 3.37242 14.9278 3.81257L0.528167 17.8531C0.365474 18.0154 0.235251 18.2059 0.144176 18.4147C-0.0480586 18.8477 -0.0480586 19.339 0.144176 19.772C0.235251 19.9809 0.365474 20.1713 0.528167 20.3336L14.9278 34.3742C15.6306 35.0585 16.769 35.0585 17.4718 34.3742C18.1737 33.689 18.1737 32.5789 17.4718 31.8937L6.14404 20.7782H28.1995C31.8712 20.8162 35.4039 19.4108 38.0003 16.8791C40.5968 14.3474 42.0382 10.9028 41.9992 7.32271V2.64252C41.9863 1.67849 41.188 0.900054 40.1993 0.887451Z" fill="white"/>
</svg>
