<svg width="43" height="34" viewBox="0 0 43 34" fill="none" xmlns="http://www.w3.org/2000/svg">
<path id="Icon" d="M40.69 0C39.7013 0.0126033 38.903 0.79104 38.89 1.75507V6.43525C38.9159 9.0806 37.8496 11.6249 35.9312 13.4956C34.0127 15.3662 31.4033 16.4059 28.6903 16.3806H6.63476L17.9625 5.26521C18.3726 4.56188 18.2365 3.67632 17.6329 3.12112C17.0294 2.56592 16.1148 2.48497 15.4186 2.92512L1.01889 16.9657C0.856197 17.128 0.725974 17.3184 0.634899 17.5273C0.442664 17.9603 0.442664 18.4515 0.634899 18.8845C0.725974 19.0934 0.856197 19.2839 1.01889 19.4462L15.4186 33.4867C16.1213 34.1711 17.2598 34.1711 17.9625 33.4867C18.6644 32.8015 18.6644 31.6914 17.9625 31.0062L6.63476 19.8908H28.6903C32.362 19.9287 35.8946 18.5233 38.4911 15.9916C41.0875 13.4599 42.5289 10.0154 42.49 6.43525V1.75507C42.477 0.79104 41.6787 0.0126033 40.69 0Z" fill="#333333"/>
</svg>
