<svg width="55" height="54" viewBox="0 0 55 54" fill="none" xmlns="http://www.w3.org/2000/svg">
<g id="Interface essential/Setting">
<g id="Icon">
<path fill-rule="evenodd" clip-rule="evenodd" d="M43.8071 19.562C44.2338 20.602 45.2452 21.2823 46.3693 21.2856C47.895 21.2979 49.1253 22.5382 49.1253 24.0639V28.8589C49.1253 30.3933 47.8814 31.6372 46.3469 31.6372C45.2228 31.6405 44.2114 32.3208 43.7847 33.3608C43.3579 34.4007 43.5998 35.5954 44.3976 36.3873C45.4678 37.484 45.4678 39.2341 44.3976 40.3308L41.0367 43.6917C39.94 44.7619 38.1899 44.7619 37.0932 43.6917C36.5873 43.1558 35.8808 42.8553 35.1438 42.8627C34.4031 42.8567 33.6906 43.1468 33.1647 43.6685C32.6389 44.1902 32.3431 44.9003 32.3431 45.6411C32.3431 47.1755 31.0992 48.4194 29.5647 48.4194H24.7698C23.2354 48.4194 21.9914 47.1755 21.9914 45.6411C21.9915 44.9003 21.6957 44.1902 21.1698 43.6685C20.6439 43.1468 19.9314 42.8567 19.1907 42.8627C18.4537 42.8553 17.7472 43.1558 17.2413 43.6917C16.1447 44.7619 14.3945 44.7619 13.2978 43.6917L9.93693 40.3308C8.86674 39.2341 8.86674 37.484 9.93693 36.3873C10.7347 35.5954 10.9766 34.4007 10.5499 33.3608C10.1231 32.3208 9.1117 31.6405 7.98759 31.6372C7.25072 31.6372 6.54404 31.3445 6.02299 30.8235C5.50195 30.3024 5.20923 29.5957 5.20923 28.8589V24.0639C5.20923 22.5295 6.45314 21.2856 7.98759 21.2856C9.1117 21.2823 10.1231 20.602 10.5499 19.562C10.9766 18.5221 10.7347 17.3274 9.93693 16.5355C8.86674 15.4388 8.86674 13.6887 9.93693 12.592L13.2978 9.23106C14.3945 8.16087 16.1447 8.16087 17.2413 9.23106C17.7472 9.767 18.4537 10.0675 19.1907 10.0601C19.9353 10.0661 20.6512 9.77298 21.1778 9.24642C21.7043 8.71986 21.9975 8.00396 21.9914 7.25932C21.9914 5.72487 23.2354 4.48096 24.7698 4.48096H29.5871C31.1216 4.48096 32.3655 5.72487 32.3655 7.25932C32.3595 8.00396 32.6526 8.71986 33.1792 9.24642C33.7057 9.77298 34.4216 10.0661 35.1663 10.0601C35.9032 10.0675 36.6097 9.767 37.1156 9.23106C38.2123 8.16087 39.9624 8.16087 41.0591 9.23106L44.42 12.592C45.4902 13.6887 45.4902 15.4388 44.42 16.5355C43.6222 17.3274 43.3803 18.5221 43.8071 19.562ZM40.611 32.0629C41.4856 29.9304 43.4885 28.4737 45.7868 28.2987L45.7196 24.6241C43.4462 24.4247 41.4748 22.9721 40.611 20.8599C39.7648 18.7426 40.1523 16.3316 41.6192 14.5861L39.0425 12.0094C37.9498 12.9245 36.5691 13.4244 35.1439 13.421C31.9686 13.4132 29.3152 11.0019 29.0046 7.84188H25.33C25.0294 11.007 22.37 13.4237 19.1907 13.421C17.7654 13.4244 16.3847 12.9245 15.292 12.0094L12.7825 14.5861C14.2267 16.3449 14.5881 18.7548 13.7236 20.8599C12.8597 22.9721 10.8883 24.4247 8.61496 24.6241V28.2987C10.8883 28.498 12.8597 29.9507 13.7236 32.0629C14.5697 34.1801 14.1822 36.5912 12.7153 38.3367L15.292 40.9134C16.3847 39.9983 17.7654 39.4984 19.1907 39.5018C22.3659 39.5096 25.0193 41.9209 25.33 45.0809H29.0046C29.2847 41.9056 31.9563 39.4778 35.1439 39.5018C36.5691 39.4984 37.9498 39.9983 39.0425 40.9134L41.552 38.3367C40.1079 36.5779 39.7464 34.168 40.611 32.0629Z" fill="white"/>
<path fill-rule="evenodd" clip-rule="evenodd" d="M19.4147 26.4614C19.4147 22.1798 22.8857 18.7089 27.1673 18.7089C29.2234 18.7089 31.1952 19.5256 32.6491 20.9795C34.103 22.4334 34.9198 24.4053 34.9198 26.4614C34.9198 30.743 31.4489 34.2139 27.1673 34.2139C22.8857 34.2139 19.4147 30.743 19.4147 26.4614ZM22.686 26.4614C22.686 28.9363 24.6923 30.9426 27.1673 30.9426C29.6422 30.9426 31.6485 28.9363 31.6485 26.4614C31.6485 23.9865 29.6422 21.9802 27.1673 21.9802C24.6923 21.9802 22.686 23.9865 22.686 26.4614Z" fill="white"/>
</g>
</g>
</svg>
