<svg width="41" height="40" viewBox="0 0 41 40" fill="none" xmlns="http://www.w3.org/2000/svg">
<g id="Interface essential/Setting">
<g id="Icon">
<path fill-rule="evenodd" clip-rule="evenodd" d="M32.535 14.5512C32.8524 15.3248 33.6047 15.8308 34.4409 15.8333C35.5758 15.8424 36.4909 16.765 36.4909 17.8999V21.4666C36.4909 22.608 35.5656 23.5333 34.4242 23.5333C33.5881 23.5357 32.8357 24.0418 32.5183 24.8153C32.2008 25.5889 32.3808 26.4775 32.9742 27.0666C33.7703 27.8824 33.7703 29.1842 32.9742 29.9999L30.4742 32.4999C29.6585 33.296 28.3566 33.296 27.5409 32.4999C27.1646 32.1013 26.639 31.8778 26.0909 31.8833C25.5399 31.8788 25.0099 32.0946 24.6187 32.4827C24.2276 32.8707 24.0075 33.3989 24.0075 33.9499C24.0075 35.0913 23.0823 36.0166 21.9409 36.0166H18.3742C17.2328 36.0166 16.3075 35.0913 16.3075 33.9499C16.3076 33.3989 16.0875 32.8707 15.6964 32.4827C15.3052 32.0946 14.7752 31.8788 14.2242 31.8833C13.6761 31.8778 13.1505 32.1013 12.7742 32.4999C11.9585 33.296 10.6566 33.296 9.84088 32.4999L7.34088 29.9999C6.54483 29.1842 6.54483 27.8824 7.34088 27.0666C7.9343 26.4775 8.11426 25.5889 7.79681 24.8153C7.47935 24.0418 6.72705 23.5357 5.89089 23.5333C5.34277 23.5333 4.81711 23.3155 4.42953 22.928C4.04196 22.5404 3.82422 22.0147 3.82422 21.4666V17.8999C3.82422 16.7586 4.7495 15.8333 5.89089 15.8333C6.72705 15.8308 7.47935 15.3248 7.79681 14.5512C8.11426 13.7777 7.9343 12.889 7.34088 12.2999C6.54483 11.4842 6.54483 10.1824 7.34088 9.36662L9.84088 6.86662C10.6566 6.07056 11.9585 6.07056 12.7742 6.86662C13.1505 7.26527 13.6761 7.48879 14.2242 7.48328C14.7781 7.48777 15.3106 7.26971 15.7023 6.87804C16.094 6.48636 16.312 5.95385 16.3075 5.39995C16.3075 4.25856 17.2328 3.33328 18.3742 3.33328H21.9576C23.0989 3.33328 24.0242 4.25856 24.0242 5.39995C24.0197 5.95385 24.2378 6.48636 24.6295 6.87804C25.0211 7.26971 25.5537 7.48777 26.1075 7.48328C26.6557 7.48879 27.1813 7.26527 27.5575 6.86662C28.3733 6.07056 29.6751 6.07056 30.4909 6.86662L32.9909 9.36662C33.7869 10.1824 33.7869 11.4842 32.9909 12.2999C32.3975 12.889 32.2175 13.7777 32.535 14.5512ZM30.1576 23.8499C30.8081 22.2637 32.298 21.1802 34.0076 21.0499L33.9576 18.3166C32.2666 18.1683 30.8001 17.0878 30.1576 15.5166C29.5282 13.9417 29.8164 12.1483 30.9076 10.8499L28.9909 8.93328C28.1781 9.61397 27.1511 9.98582 26.0909 9.98328C23.729 9.9775 21.7553 8.18387 21.5242 5.83328H18.7909C18.5673 8.18761 16.5891 9.98528 14.2242 9.98328C13.164 9.98582 12.137 9.61397 11.3242 8.93328L9.45755 10.8499C10.5318 12.1582 10.8006 13.9508 10.1576 15.5166C9.515 17.0878 8.04854 18.1683 6.35755 18.3166V21.0499C8.04854 21.1982 9.515 22.2788 10.1576 23.8499C10.7869 25.4248 10.4987 27.2183 9.40755 28.5166L11.3242 30.4333C12.137 29.7526 13.164 29.3807 14.2242 29.3833C16.5861 29.3891 18.5598 31.1827 18.7909 33.5333H21.5242C21.7326 31.1714 23.7199 29.3654 26.0909 29.3833C27.1511 29.3807 28.1781 29.7526 28.9909 30.4333L30.8575 28.5166C29.7833 27.2083 29.5145 25.4158 30.1576 23.8499Z" fill="#333333"/>
<path fill-rule="evenodd" clip-rule="evenodd" d="M14.3909 19.6833C14.3909 16.4984 16.9727 13.9166 20.1576 13.9166C21.687 13.9166 23.1537 14.5242 24.2352 15.6056C25.3167 16.6871 25.9242 18.1539 25.9242 19.6833C25.9242 22.8681 23.3424 25.4499 20.1576 25.4499C16.9727 25.4499 14.3909 22.8681 14.3909 19.6833ZM16.8242 19.6833C16.8242 21.5242 18.3166 23.0166 20.1576 23.0166C21.9985 23.0166 23.4909 21.5242 23.4909 19.6833C23.4909 17.8423 21.9985 16.3499 20.1576 16.3499C18.3166 16.3499 16.8242 17.8423 16.8242 19.6833Z" fill="#333333"/>
</g>
</g>
</svg>
