<svg width="117" height="116" viewBox="0 0 117 116" fill="none" xmlns="http://www.w3.org/2000/svg">
<g filter="url(#filter0_d_43_104)">
<g filter="url(#filter1_d_43_104)">
<circle cx="58.4907" cy="54" r="34.5" stroke="#333333" shape-rendering="crispEdges"/>
</g>
<path d="M69.7302 53.625C69.7302 53.0037 69.2265 52.5 68.6052 52.5C67.9839 52.5 67.4802 53.0037 67.4802 53.625C67.5243 56.2175 66.5355 58.7211 64.7319 60.5839C62.9282 62.4466 60.4578 63.5155 57.8652 63.555C55.2726 63.5155 52.8022 62.4466 50.9985 60.5839C49.1948 58.7211 48.2061 56.2175 48.2502 53.625C48.2502 53.0037 47.7465 52.5 47.1252 52.5C46.5039 52.5 46.0002 53.0037 46.0002 53.625C45.9661 59.79 50.6092 64.9778 56.7402 65.625V69.375C56.7402 69.9963 57.2439 70.5 57.8652 70.5C58.4865 70.5 58.9902 69.9963 58.9902 69.375V65.745C65.1674 65.0935 69.8266 59.8358 69.7302 53.625Z" fill="#333333"/>
<path fill-rule="evenodd" clip-rule="evenodd" d="M65.5 54C65.5 58.1421 62.1421 61.5 58 61.5C53.8579 61.5 50.5 58.1421 50.5 54V46.5C50.5 42.3579 53.8579 39 58 39C62.1421 39 65.5 42.3579 65.5 46.5V54ZM58 41.25C55.1005 41.25 52.75 43.6005 52.75 46.5V54C52.75 56.8995 55.1005 59.25 58 59.25C60.8995 59.25 63.25 56.8995 63.25 54V46.5C63.25 43.6005 60.8995 41.25 58 41.25Z" fill="#333333"/>
</g>
<defs>
<filter id="filter0_d_43_104" x="0.490723" y="0" width="116" height="116" filterUnits="userSpaceOnUse" color-interpolation-filters="sRGB">
<feFlood flood-opacity="0" result="BackgroundImageFix"/>
<feColorMatrix in="SourceAlpha" type="matrix" values="0 0 0 0 0 0 0 0 0 0 0 0 0 0 0 0 0 0 127 0" result="hardAlpha"/>
<feOffset dy="4"/>
<feGaussianBlur stdDeviation="11.5"/>
<feComposite in2="hardAlpha" operator="out"/>
<feColorMatrix type="matrix" values="0 0 0 0 0.666667 0 0 0 0 0.666667 0 0 0 0 0.666667 0 0 0 0.3 0"/>
<feBlend mode="normal" in2="BackgroundImageFix" result="effect1_dropShadow_43_104"/>
<feBlend mode="normal" in="SourceGraphic" in2="effect1_dropShadow_43_104" result="shape"/>
</filter>
<filter id="filter1_d_43_104" x="19.4907" y="19" width="78" height="78" filterUnits="userSpaceOnUse" color-interpolation-filters="sRGB">
<feFlood flood-opacity="0" result="BackgroundImageFix"/>
<feColorMatrix in="SourceAlpha" type="matrix" values="0 0 0 0 0 0 0 0 0 0 0 0 0 0 0 0 0 0 127 0" result="hardAlpha"/>
<feOffset dy="4"/>
<feGaussianBlur stdDeviation="2"/>
<feComposite in2="hardAlpha" operator="out"/>
<feColorMatrix type="matrix" values="0 0 0 0 0 0 0 0 0 0 0 0 0 0 0 0 0 0 0.6 0"/>
<feBlend mode="normal" in2="BackgroundImageFix" result="effect1_dropShadow_43_104"/>
<feBlend mode="normal" in="SourceGraphic" in2="effect1_dropShadow_43_104" result="shape"/>
</filter>
</defs>
</svg>
